<svg id="svg" version="1.1" xmlns="http://www.w3.org/2000/svg" xmlns:xlink="http://www.w3.org/1999/xlink" width="400" height="400" viewBox="0, 0, 400,400"><g id="svgg"><path id="path0" d="M192.188 111.375 C 190.959 111.864,190.429 112.309,172.471 127.923 C 164.312 135.016,155.606 142.578,153.124 144.727 C 150.642 146.875,144.222 152.436,138.857 157.084 C 133.491 161.732,121.220 172.344,111.587 180.665 C 101.954 188.987,93.747 196.331,93.349 196.986 C 91.524 199.987,92.138 203.349,94.861 205.257 L 96.558 206.445 103.152 206.338 C 110.990 206.211,111.980 206.474,113.356 209.052 L 114.258 210.742 114.453 249.805 L 114.648 288.867 115.740 291.091 C 117.432 294.536,119.915 297.026,123.350 298.724 L 126.327 300.195 195.508 300.195 L 264.689 300.195 267.665 298.724 C 271.228 296.964,273.774 294.347,275.548 290.625 L 276.758 288.086 276.953 249.805 C 277.130 215.220,277.211 211.410,277.792 210.351 C 279.272 207.655,281.184 206.783,286.333 206.458 C 297.343 205.762,301.194 202.913,298.577 197.398 C 298.035 196.256,293.574 191.840,292.611 191.491 C 292.443 191.430,289.791 194.123,286.718 197.475 C 275.744 209.447,266.478 216.283,254.219 221.450 C 250.063 223.202,248.656 223.503,250.781 222.187 C 256.501 218.642,260.827 214.974,265.673 209.560 C 272.888 201.497,278.946 190.149,279.909 182.894 L 280.153 181.052 276.937 178.319 C 275.168 176.816,260.690 164.424,244.763 150.781 C 200.983 113.280,199.905 112.369,198.453 111.627 C 196.973 110.872,193.776 110.744,192.188 111.375 M263.352 114.431 C 263.321 116.663,261.627 121.168,259.970 123.425 C 257.350 126.994,255.065 128.472,249.121 130.440 C 245.735 131.562,245.781 131.689,250.098 133.187 C 257.287 135.680,260.032 138.345,262.892 145.605 C 263.590 147.378,264.287 148.828,264.440 148.828 C 264.823 148.828,265.625 146.997,265.625 146.121 C 265.625 144.597,268.745 139.174,270.643 137.399 C 272.914 135.274,274.567 134.389,278.851 133.002 C 282.481 131.827,282.595 131.288,279.383 130.485 C 272.557 128.778,268.844 125.006,265.775 116.663 C 264.442 113.036,263.385 112.063,263.352 114.431 M299.050 146.580 C 296.133 155.168,292.986 158.410,284.961 161.093 C 283.242 161.668,281.396 162.383,280.859 162.681 C 279.753 163.297,279.648 163.240,283.789 164.266 C 291.831 166.257,296.945 171.153,298.659 178.499 C 298.969 179.827,299.455 181.357,299.738 181.899 L 300.254 182.883 300.838 181.969 C 301.159 181.466,301.995 179.385,302.696 177.344 C 305.183 170.108,308.733 166.594,315.366 164.808 C 321.168 163.246,321.984 162.425,318.450 161.707 C 310.241 160.038,304.686 154.830,302.288 146.554 C 300.837 141.546,300.760 141.546,299.050 146.580 M199.948 168.176 C 217.550 172.325,222.714 195.602,208.470 206.585 C 197.432 215.095,181.429 211.459,175.564 199.108 C 167.545 182.223,181.961 163.936,199.948 168.176 M251.859 188.402 C 253.427 191.435,255.348 193.353,258.511 195.043 L 260.939 196.340 258.603 197.456 C 255.626 198.879,253.511 200.981,251.878 204.138 C 250.305 207.180,250.447 207.184,249.055 204.068 C 247.744 201.133,245.148 198.539,242.386 197.403 C 240.185 196.497,240.190 196.455,242.664 195.108 C 245.822 193.389,247.838 191.298,249.075 188.459 C 250.414 185.387,250.301 185.389,251.859 188.402 M203.182 223.058 C 220.286 226.544,233.379 238.626,237.795 254.998 C 238.770 258.612,238.825 259.340,238.970 270.602 L 239.123 282.415 238.124 284.597 L 237.126 286.778 235.502 285.869 C 234.610 285.370,226.577 279.466,217.653 272.750 C 194.924 255.646,195.610 255.888,187.500 262.123 C 167.037 277.854,154.760 286.719,153.435 286.719 C 150.249 286.719,150.185 261.409,153.347 251.711 C 158.251 236.666,171.919 225.251,188.281 222.534 C 191.349 222.025,199.521 222.312,203.182 223.058 " stroke="none" fill="#2f7ba6" fill-rule="evenodd"></path><path id="path1" d="M0.000 200.000 L 0.000 400.000 200.000 400.000 L 400.000 400.000 400.000 200.000 L 400.000 0.000 200.000 0.000 L 0.000 0.000 0.000 200.000 M198.260 111.335 C 198.835 111.554,201.446 113.553,204.062 115.779 C 211.038 121.714,241.799 148.031,248.828 154.079 C 252.158 156.944,260.596 164.176,267.578 170.150 C 282.021 182.508,280.883 180.914,279.242 186.485 C 275.449 199.358,263.074 215.285,251.901 221.672 C 247.245 224.333,256.012 220.770,262.057 217.544 C 270.829 212.863,278.515 206.333,289.718 194.043 C 292.664 190.811,292.362 190.802,295.901 194.238 C 303.147 201.275,299.919 205.647,286.773 206.604 C 276.324 207.365,277.213 203.441,277.073 249.402 C 276.945 291.349,277.102 289.036,274.098 293.425 C 272.202 296.196,268.772 298.781,265.522 299.889 C 263.123 300.706,132.114 301.197,127.825 300.404 C 122.430 299.407,117.957 295.895,115.514 290.737 L 114.258 288.086 114.063 249.219 C 113.823 201.464,115.118 206.642,103.382 206.520 C 95.353 206.437,94.978 206.328,93.066 203.520 C 90.260 199.396,91.351 197.937,108.008 183.553 C 115.742 176.873,124.268 169.511,126.953 167.191 C 132.454 162.441,155.706 142.271,176.679 124.058 C 184.370 117.379,191.137 111.702,191.718 111.443 C 193.021 110.862,196.850 110.799,198.260 111.335 M264.612 113.770 C 264.925 114.253,265.612 115.803,266.139 117.214 C 269.004 124.874,271.597 127.580,278.320 129.926 C 282.711 131.458,282.766 131.917,278.711 133.234 C 271.493 135.579,267.853 139.240,265.834 146.184 C 264.798 149.748,264.359 149.721,262.898 146.001 C 259.872 138.294,256.898 135.531,248.730 132.837 C 245.371 131.729,245.415 131.538,249.316 130.252 C 257.766 127.465,263.281 121.056,263.281 114.021 C 263.281 112.668,263.833 112.563,264.612 113.770 M302.352 146.217 C 304.575 154.466,309.730 159.409,318.300 161.509 C 321.900 162.391,321.747 162.775,317.161 164.356 C 310.670 166.594,310.180 166.833,307.987 168.837 C 305.387 171.214,304.360 172.919,302.747 177.539 C 301.060 182.369,300.003 183.867,299.505 182.129 C 299.397 181.753,298.925 180.040,298.455 178.323 C 296.360 170.660,291.834 166.447,283.484 164.386 C 278.910 163.256,279.362 162.499,285.745 160.603 C 292.659 158.548,295.970 154.996,298.865 146.529 C 300.773 140.949,300.929 140.935,302.352 146.217 M191.602 167.951 C 177.273 170.266,169.289 185.747,175.614 198.952 C 182.935 214.238,204.772 215.266,213.389 200.730 C 222.772 184.904,209.574 165.047,191.602 167.951 M249.227 188.581 C 248.047 191.307,245.857 193.566,242.894 195.111 L 240.671 196.271 242.894 197.452 C 245.876 199.036,248.054 201.287,249.227 203.997 C 250.421 206.758,250.317 206.766,251.861 203.780 C 253.424 200.759,254.967 199.220,258.130 197.530 L 260.558 196.233 258.527 195.284 C 255.898 194.057,253.213 191.399,251.750 188.575 C 250.330 185.837,250.414 185.836,249.227 188.581 M187.807 222.845 C 168.178 226.054,153.346 241.856,151.560 261.462 C 150.741 270.458,151.388 284.262,152.726 286.328 C 153.490 287.507,159.837 283.089,184.850 263.963 C 196.454 255.090,192.621 253.682,226.563 279.291 C 230.322 282.127,234.167 284.900,235.106 285.453 L 236.813 286.458 237.534 285.514 C 239.249 283.268,239.673 263.449,238.143 257.031 C 232.658 234.025,210.688 219.104,187.807 222.845 " stroke="none" fill="#fbfbf4" fill-rule="evenodd"></path><path id="path2" d="M270.483 137.598 L 269.336 138.867 270.605 137.720 C 271.304 137.089,271.875 136.518,271.875 136.450 C 271.875 136.149,271.553 136.414,270.483 137.598 M105.566 206.519 C 105.942 206.618,106.558 206.618,106.934 206.519 C 107.310 206.421,107.002 206.341,106.250 206.341 C 105.498 206.341,105.190 206.421,105.566 206.519 M163.651 235.059 L 162.305 236.523 163.770 235.177 C 165.133 233.924,165.414 233.594,165.116 233.594 C 165.050 233.594,164.391 234.253,163.651 235.059 M259.277 300.666 C 259.761 300.759,260.552 300.759,261.035 300.666 C 261.519 300.573,261.123 300.497,260.156 300.497 C 259.189 300.497,258.794 300.573,259.277 300.666 " stroke="none" fill="#92b9cd" fill-rule="evenodd"></path><path id="path3" d="M103.223 206.519 C 103.599 206.618,104.214 206.618,104.590 206.519 C 104.966 206.421,104.658 206.341,103.906 206.341 C 103.154 206.341,102.847 206.421,103.223 206.519 " stroke="none" fill="#809cac" fill-rule="evenodd"></path><path id="path4" d="M114.224 218.945 C 114.224 222.813,114.283 224.342,114.354 222.344 C 114.425 220.345,114.425 217.181,114.353 215.312 C 114.282 213.443,114.223 215.078,114.224 218.945 M114.161 227.539 C 114.165 228.398,114.245 228.704,114.339 228.218 C 114.432 227.732,114.429 227.029,114.331 226.656 C 114.233 226.282,114.157 226.680,114.161 227.539 M114.234 240.039 C 114.234 246.055,114.289 248.461,114.355 245.387 C 114.421 242.312,114.421 237.390,114.354 234.449 C 114.288 231.508,114.234 234.023,114.234 240.039 M114.188 254.688 C 114.188 256.084,114.258 256.655,114.345 255.957 C 114.432 255.259,114.432 254.116,114.345 253.418 C 114.258 252.720,114.188 253.291,114.188 254.688 M114.188 261.328 C 114.188 262.725,114.258 263.296,114.345 262.598 C 114.432 261.899,114.432 260.757,114.345 260.059 C 114.258 259.360,114.188 259.932,114.188 261.328 M114.217 280.664 C 114.217 283.672,114.279 284.851,114.353 283.284 C 114.427 281.717,114.427 279.256,114.352 277.815 C 114.277 276.374,114.216 277.656,114.217 280.664 M130.957 300.660 C 131.333 300.758,131.948 300.758,132.324 300.660 C 132.700 300.562,132.393 300.481,131.641 300.481 C 130.889 300.481,130.581 300.562,130.957 300.660 M139.184 300.683 C 142.366 300.749,147.464 300.748,150.512 300.683 C 153.561 300.617,150.957 300.563,144.727 300.563 C 138.496 300.563,136.002 300.617,139.184 300.683 M161.230 300.683 C 164.077 300.749,168.735 300.749,171.582 300.683 C 174.429 300.616,172.100 300.561,166.406 300.561 C 160.713 300.561,158.384 300.616,161.230 300.683 M179.018 300.680 C 180.261 300.757,182.195 300.757,183.315 300.678 C 184.435 300.599,183.418 300.536,181.055 300.537 C 178.691 300.538,177.775 300.602,179.018 300.680 M191.331 300.683 C 193.975 300.750,198.194 300.750,200.706 300.682 C 203.218 300.614,201.055 300.559,195.898 300.559 C 190.742 300.559,188.687 300.615,191.331 300.683 M206.934 300.677 C 207.847 300.759,209.341 300.759,210.254 300.677 C 211.167 300.594,210.420 300.527,208.594 300.527 C 206.768 300.527,206.021 300.594,206.934 300.677 M212.988 300.670 C 213.579 300.760,214.546 300.760,215.137 300.670 C 215.728 300.581,215.244 300.508,214.063 300.508 C 212.881 300.508,212.397 300.581,212.988 300.670 M222.574 300.680 C 223.925 300.757,226.034 300.756,227.261 300.679 C 228.488 300.602,227.383 300.539,224.805 300.540 C 222.227 300.541,221.223 300.604,222.574 300.680 M230.566 300.670 C 231.157 300.760,232.124 300.760,232.715 300.670 C 233.306 300.581,232.822 300.508,231.641 300.508 C 230.459 300.508,229.976 300.581,230.566 300.670 M235.853 300.679 C 236.988 300.758,238.746 300.757,239.759 300.677 C 240.772 300.597,239.844 300.532,237.695 300.533 C 235.547 300.534,234.718 300.600,235.853 300.679 M244.221 300.680 C 245.662 300.755,248.123 300.755,249.690 300.681 C 251.257 300.607,250.078 300.545,247.070 300.545 C 244.062 300.544,242.780 300.605,244.221 300.680 M254.594 300.667 C 255.080 300.760,255.783 300.757,256.157 300.659 C 256.530 300.561,256.133 300.485,255.273 300.489 C 254.414 300.493,254.108 300.573,254.594 300.667 " stroke="none" fill="#71acc4" fill-rule="evenodd"></path></g></svg>