<svg id="svg" version="1.1" xmlns="http://www.w3.org/2000/svg" xmlns:xlink="http://www.w3.org/1999/xlink" width="400" height="400" viewBox="0, 0, 400,400">
  <g id="svgg">
    <path id="path0" d="M192.188 111.375 C 190.959 111.864,190.429 112.309,172.471 127.923 C 164.312 135.016,155.606 142.578,153.124 144.727 C 150.642 146.875,144.222 152.436,138.857 157.084 C 133.491 161.732,121.220 172.344,111.587 180.665 C 101.954 188.987,93.747 196.331,93.349 196.986 C 91.524 199.987,92.138 203.349,94.861 205.257 L 96.558 206.445 103.152 206.338 C 110.990 206.211,111.980 206.474,113.356 209.052 L 114.258 210.742 114.453 249.805 L 114.648 288.867 115.740 291.091 C 117.432 294.536,119.915 297.026,123.350 298.724 L 126.327 300.195 195.508 300.195 L 264.689 300.195 267.665 298.724 C 271.228 296.964,273.774 294.347,275.548 290.625 L 276.758 288.086 276.953 249.805 C 277.130 215.220,277.211 211.410,277.792 210.351 C 279.272 207.655,281.184 206.783,286.333 206.458 C 297.343 205.762,301.194 202.913,298.577 197.398 C 298.035 196.256,293.574 191.840,292.611 191.491 C 292.443 191.430,289.791 194.123,286.718 197.475 C 275.744 209.447,266.478 216.283,254.219 221.450 C 250.063 223.202,248.656 223.503,250.781 222.187 C 256.501 218.642,260.827 214.974,265.673 209.560 C 272.888 201.497,278.946 190.149,279.909 182.894 L 280.153 181.052 276.937 178.319 C 275.168 176.816,260.690 164.424,244.763 150.781 C 200.983 113.280,199.905 112.369,198.453 111.627 C 196.973 110.872,193.776 110.744,192.188 111.375 M263.352 114.431 C 263.321 116.663,261.627 121.168,259.970 123.425 C 257.350 126.994,255.065 128.472,249.121 130.440 C 245.735 131.562,245.781 131.689,250.098 133.187 C 257.287 135.680,260.032 138.345,262.892 145.605 C 263.590 147.378,264.287 148.828,264.440 148.828 C 264.823 148.828,265.625 146.997,265.625 146.121 C 265.625 144.597,268.745 139.174,270.643 137.399 C 272.914 135.274,274.567 134.389,278.851 133.002 C 282.481 131.827,282.595 131.288,279.383 130.485 C 272.557 128.778,268.844 125.006,265.775 116.663 C 264.442 113.036,263.385 112.063,263.352 114.431 M299.050 146.580 C 296.133 155.168,292.986 158.410,284.961 161.093 C 283.242 161.668,281.396 162.383,280.859 162.681 C 279.753 163.297,279.648 163.240,283.789 164.266 C 291.831 166.257,296.945 171.153,298.659 178.499 C 298.969 179.827,299.455 181.357,299.738 181.899 L 300.254 182.883 300.838 181.969 C 301.159 181.466,301.995 179.385,302.696 177.344 C 305.183 170.108,308.733 166.594,315.366 164.808 C 321.168 163.246,321.984 162.425,318.450 161.707 C 310.241 160.038,304.686 154.830,302.288 146.554 C 300.837 141.546,300.760 141.546,299.050 146.580 M199.948 168.176 C 217.550 172.325,222.714 195.602,208.470 206.585 C 197.432 215.095,181.429 211.459,175.564 199.108 C 167.545 182.223,181.961 163.936,199.948 168.176 M251.859 188.402 C 253.427 191.435,255.348 193.353,258.511 195.043 L 260.939 196.340 258.603 197.456 C 255.626 198.879,253.511 200.981,251.878 204.138 C 250.305 207.180,250.447 207.184,249.055 204.068 C 247.744 201.133,245.148 198.539,242.386 197.403 C 240.185 196.497,240.190 196.455,242.664 195.108 C 245.822 193.389,247.838 191.298,249.075 188.459 C 250.414 185.387,250.301 185.389,251.859 188.402 M203.182 223.058 C 220.286 226.544,233.379 238.626,237.795 254.998 C 238.770 258.612,238.825 259.340,238.970 270.602 L 239.123 282.415 238.124 284.597 L 237.126 286.778 235.502 285.869 C 234.610 285.370,226.577 279.466,217.653 272.750 C 194.924 255.646,195.610 255.888,187.500 262.123 C 167.037 277.854,154.760 286.719,153.435 286.719 C 150.249 286.719,150.185 261.409,153.347 251.711 C 158.251 236.666,171.919 225.251,188.281 222.534 C 191.349 222.025,199.521 222.312,203.182 223.058 " stroke="none" fill="#1e40af" fill-rule="evenodd"/>
  </g>
</svg>
