<svg xmlns="http://www.w3.org/2000/svg" xmlns:xlink="http://www.w3.org/1999/xlink" width="750" zoomAndPan="magnify" viewBox="0 0 562.5 89.999999" height="120" preserveAspectRatio="xMidYMid meet" version="1.0"><defs><g/><clipPath id="0ef51d30e8"><path d="M 98.480469 7.824219 L 162.0625 7.824219 L 162.0625 79.632812 L 98.480469 79.632812 Z M 98.480469 7.824219 " clip-rule="nonzero"/></clipPath><clipPath id="e1eee2b607"><path d="M 30.269531 7.824219 L 93.773438 7.824219 L 93.773438 79.632812 L 30.269531 79.632812 Z M 30.269531 7.824219 " clip-rule="nonzero"/></clipPath><clipPath id="4774a391f9"><rect x="0" width="368" y="0" height="69"/></clipPath><clipPath id="df0e1cfbfd"><path d="M 166 64 L 351 64 L 351 89.960938 L 166 89.960938 Z M 166 64 " clip-rule="nonzero"/></clipPath><clipPath id="ab2a319b03"><rect x="0" width="185" y="0" height="26"/></clipPath></defs><g clip-path="url(#0ef51d30e8)"><path fill="#000000" d="M 106.292969 28.859375 C 101.589844 30.632812 98.683594 35.082031 98.636719 39.824219 L 98.632812 39.828125 L 98.632812 79.632812 C 98.632812 79.632812 110.464844 73.945312 110.464844 56.53125 L 110.464844 39.929688 L 138.746094 29.261719 C 148.789062 25.472656 157.019531 18.015625 161.777344 8.394531 L 162.0625 7.824219 Z M 113.992188 54.507812 C 113.992188 55.273438 113.972656 56.039062 113.933594 56.800781 L 126.246094 52.152344 C 136.285156 48.363281 144.519531 40.90625 149.277344 31.285156 L 149.5625 30.710938 L 113.992188 44.140625 L 113.992188 54.507812 " fill-opacity="1" fill-rule="nonzero"/></g><g clip-path="url(#e1eee2b607)"><path fill="#d20e09" d="M 30.269531 7.824219 L 30.550781 8.394531 C 35.3125 18.015625 43.542969 25.472656 53.582031 29.261719 L 81.867188 39.929688 L 81.867188 56.53125 C 81.867188 73.945312 93.695312 79.632812 93.695312 79.632812 L 93.695312 39.828125 L 93.691406 39.824219 C 93.648438 35.082031 90.738281 30.632812 86.039062 28.859375 Z M 78.335938 44.140625 L 42.769531 30.710938 L 43.050781 31.285156 C 47.8125 40.90625 56.042969 48.363281 66.085938 52.152344 L 78.398438 56.800781 C 78.359375 56.039062 78.335938 55.273438 78.335938 54.507812 L 78.335938 44.140625 " fill-opacity="1" fill-rule="nonzero"/></g><g transform="matrix(1, 0, 0, 1, 161, 4)"><g clip-path="url(#4774a391f9)"><g fill="#000000" fill-opacity="1"><g transform="translate(1.068379, 52.298119)"><g><path d="M 39.046875 -2.40625 C 39.046875 -1.5625 38.898438 -1.015625 38.609375 -0.765625 C 38.316406 -0.523438 37.835938 -0.359375 37.171875 -0.265625 C 36.015625 -0.0859375 34.53125 0.0507812 32.71875 0.15625 C 30.914062 0.269531 29.125 0.359375 27.34375 0.421875 C 25.5625 0.492188 24.09375 0.53125 22.9375 0.53125 C 18.925781 0.53125 15.570312 -0.046875 12.875 -1.203125 C 10.175781 -2.359375 8.132812 -4.351562 6.75 -7.1875 C 5.375 -10.019531 4.6875 -13.882812 4.6875 -18.78125 L 4.6875 -48.34375 C 4.6875 -48.695312 4.796875 -49.003906 5.015625 -49.265625 C 5.234375 -49.535156 5.523438 -49.671875 5.890625 -49.671875 L 9.625 -49.671875 C 9.976562 -49.671875 10.253906 -49.535156 10.453125 -49.265625 C 10.660156 -49.003906 10.765625 -48.695312 10.765625 -48.34375 L 10.765625 -18.78125 C 10.765625 -14.90625 11.207031 -11.960938 12.09375 -9.953125 C 12.988281 -7.953125 14.347656 -6.59375 16.171875 -5.875 C 18.003906 -5.164062 20.300781 -4.8125 23.0625 -4.8125 C 24.039062 -4.8125 25.195312 -4.832031 26.53125 -4.875 C 27.875 -4.925781 29.144531 -4.984375 30.34375 -5.046875 C 31.550781 -5.109375 32.425781 -5.164062 32.96875 -5.21875 L 32.96875 -48.34375 C 32.96875 -48.695312 33.078125 -49.003906 33.296875 -49.265625 C 33.515625 -49.535156 33.804688 -49.671875 34.171875 -49.671875 L 37.84375 -49.671875 C 38.195312 -49.671875 38.484375 -49.535156 38.703125 -49.265625 C 38.929688 -49.003906 39.046875 -48.695312 39.046875 -48.34375 Z M 39.046875 -2.40625 "/></g></g></g><g fill="#000000" fill-opacity="1"><g transform="translate(41.774887, 52.298119)"><g><path d="M 32.6875 -1.34375 C 32.6875 -0.976562 32.578125 -0.660156 32.359375 -0.390625 C 32.140625 -0.128906 31.847656 0 31.484375 0 L 28.015625 0 C 27.660156 0 27.367188 -0.128906 27.140625 -0.390625 C 26.921875 -0.660156 26.8125 -0.976562 26.8125 -1.34375 L 26.8125 -25.203125 C 26.8125 -27.703125 26.410156 -29.484375 25.609375 -30.546875 C 24.804688 -31.617188 23.269531 -32.15625 21 -32.15625 L 16.25 -32.15625 C 13.976562 -32.15625 12.441406 -31.617188 11.640625 -30.546875 C 10.835938 -29.484375 10.4375 -27.703125 10.4375 -25.203125 L 10.4375 -1.34375 C 10.4375 -0.976562 10.320312 -0.660156 10.09375 -0.390625 C 9.875 -0.128906 9.585938 0 9.234375 0 L 5.75 0 C 5.394531 0 5.101562 -0.128906 4.875 -0.390625 C 4.65625 -0.660156 4.546875 -0.976562 4.546875 -1.34375 L 4.546875 -25.203125 C 4.546875 -27.785156 4.9375 -29.867188 5.71875 -31.453125 C 6.5 -33.035156 7.488281 -34.25 8.6875 -35.09375 C 9.894531 -35.945312 11.175781 -36.515625 12.53125 -36.796875 C 13.894531 -37.085938 15.132812 -37.234375 16.25 -37.234375 L 21 -37.234375 C 22.15625 -37.234375 23.398438 -37.085938 24.734375 -36.796875 C 26.078125 -36.515625 27.347656 -35.945312 28.546875 -35.09375 C 29.753906 -34.25 30.742188 -33.035156 31.515625 -31.453125 C 32.296875 -29.867188 32.6875 -27.785156 32.6875 -25.203125 Z M 32.6875 -1.34375 "/></g></g></g><g fill="#000000" fill-opacity="1"><g transform="translate(75.462875, 52.298119)"><g><path d="M 11.296875 -44 C 11.296875 -43.632812 11.160156 -43.316406 10.890625 -43.046875 C 10.628906 -42.785156 10.320312 -42.65625 9.96875 -42.65625 L 6.546875 -42.65625 C 6.191406 -42.65625 5.878906 -42.785156 5.609375 -43.046875 C 5.347656 -43.316406 5.21875 -43.632812 5.21875 -44 L 5.21875 -49.34375 C 5.21875 -49.695312 5.347656 -50.003906 5.609375 -50.265625 C 5.878906 -50.535156 6.191406 -50.671875 6.546875 -50.671875 L 9.96875 -50.671875 C 10.320312 -50.671875 10.628906 -50.535156 10.890625 -50.265625 C 11.160156 -50.003906 11.296875 -49.695312 11.296875 -49.34375 Z M 11.171875 -1.34375 C 11.171875 -0.976562 11.035156 -0.660156 10.765625 -0.390625 C 10.492188 -0.128906 10.179688 0 9.828125 0 L 6.625 0 C 6.257812 0 5.941406 -0.128906 5.671875 -0.390625 C 5.410156 -0.660156 5.28125 -0.976562 5.28125 -1.34375 L 5.28125 -35.4375 C 5.28125 -35.789062 5.410156 -36.097656 5.671875 -36.359375 C 5.941406 -36.628906 6.257812 -36.765625 6.625 -36.765625 L 9.828125 -36.765625 C 10.179688 -36.765625 10.492188 -36.628906 10.765625 -36.359375 C 11.035156 -36.097656 11.171875 -35.789062 11.171875 -35.4375 Z M 11.171875 -1.34375 "/></g></g></g><g fill="#000000" fill-opacity="1"><g transform="translate(88.429566, 52.298119)"><g><path d="M 22.203125 -1.0625 C 22.203125 -0.445312 21.753906 -0.0703125 20.859375 0.0625 C 20.234375 0.15625 19.304688 0.242188 18.078125 0.328125 C 16.859375 0.421875 15.644531 0.46875 14.4375 0.46875 C 11.320312 0.46875 8.894531 -0.175781 7.15625 -1.46875 C 5.414062 -2.757812 4.546875 -5.210938 4.546875 -8.828125 L 4.546875 -43.328125 C 4.546875 -43.679688 4.675781 -43.96875 4.9375 -44.1875 C 5.207031 -44.414062 5.523438 -44.550781 5.890625 -44.59375 L 9.15625 -45.125 C 9.207031 -45.125 9.242188 -45.125 9.265625 -45.125 C 9.285156 -45.125 9.296875 -45.125 9.296875 -45.125 C 9.648438 -45.125 9.925781 -45 10.125 -44.75 C 10.332031 -44.507812 10.4375 -44.210938 10.4375 -43.859375 L 10.4375 -36.765625 L 20.859375 -36.765625 C 21.703125 -36.765625 22.125 -36.363281 22.125 -35.5625 L 22.125 -33.296875 C 22.125 -32.492188 21.703125 -32.09375 20.859375 -32.09375 L 10.4375 -32.09375 L 10.4375 -8.828125 C 10.4375 -6.910156 10.800781 -5.671875 11.53125 -5.109375 C 12.269531 -4.554688 13.550781 -4.28125 15.375 -4.28125 L 20.796875 -4.28125 C 21.734375 -4.28125 22.203125 -3.96875 22.203125 -3.34375 Z M 22.203125 -1.0625 "/></g></g></g><g fill="#000000" fill-opacity="1"><g transform="translate(108.748983, 52.298119)"><g><path d="M 32.890625 -17.984375 C 32.890625 -17.003906 32.46875 -16.515625 31.625 -16.515625 L 9.234375 -16.515625 L 9.234375 -15.578125 C 9.234375 -11.609375 10.007812 -8.800781 11.5625 -7.15625 C 13.125 -5.507812 15.441406 -4.6875 18.515625 -4.6875 C 20.484375 -4.6875 22.578125 -4.75 24.796875 -4.875 C 27.023438 -5.007812 28.898438 -5.191406 30.421875 -5.421875 C 30.515625 -5.421875 30.582031 -5.421875 30.625 -5.421875 C 30.664062 -5.421875 30.707031 -5.421875 30.75 -5.421875 C 31.019531 -5.421875 31.265625 -5.351562 31.484375 -5.21875 C 31.710938 -5.082031 31.828125 -4.835938 31.828125 -4.484375 L 31.828125 -2.203125 C 31.828125 -1.753906 31.738281 -1.40625 31.5625 -1.15625 C 31.382812 -0.914062 31.023438 -0.753906 30.484375 -0.671875 C 28.566406 -0.316406 26.648438 -0.0390625 24.734375 0.15625 C 22.816406 0.363281 20.742188 0.46875 18.515625 0.46875 C 16.597656 0.46875 14.738281 0.210938 12.9375 -0.296875 C 11.132812 -0.804688 9.507812 -1.664062 8.0625 -2.875 C 6.613281 -4.082031 5.460938 -5.71875 4.609375 -7.78125 C 3.765625 -9.851562 3.34375 -12.453125 3.34375 -15.578125 L 3.34375 -21.59375 C 3.34375 -26.363281 4.625 -30.160156 7.1875 -32.984375 C 9.75 -35.816406 13.414062 -37.234375 18.1875 -37.234375 C 23.09375 -37.234375 26.769531 -35.816406 29.21875 -32.984375 C 31.664062 -30.160156 32.890625 -26.363281 32.890625 -21.59375 Z M 26.9375 -21 L 26.9375 -21.59375 C 26.9375 -25.382812 26.210938 -28.082031 24.765625 -29.6875 C 23.316406 -31.289062 21.125 -32.09375 18.1875 -32.09375 C 15.332031 -32.09375 13.125 -31.242188 11.5625 -29.546875 C 10.007812 -27.859375 9.234375 -25.207031 9.234375 -21.59375 L 9.234375 -21 Z M 26.9375 -21 "/></g></g></g><g fill="#000000" fill-opacity="1"><g transform="translate(141.568037, 52.298119)"><g><path d="M 31.625 -2.203125 C 31.625 -1.753906 31.546875 -1.40625 31.390625 -1.15625 C 31.234375 -0.914062 30.84375 -0.753906 30.21875 -0.671875 C 28.164062 -0.265625 26.113281 0.0234375 24.0625 0.203125 C 22.019531 0.378906 19.972656 0.46875 17.921875 0.46875 C 12.929688 0.46875 9.253906 -1.035156 6.890625 -4.046875 C 4.523438 -7.054688 3.34375 -11.054688 3.34375 -16.046875 L 3.34375 -20.859375 C 3.34375 -26.117188 4.554688 -30.160156 6.984375 -32.984375 C 9.410156 -35.816406 13.054688 -37.234375 17.921875 -37.234375 C 18.941406 -37.234375 20.175781 -37.175781 21.625 -37.0625 C 23.070312 -36.957031 24.441406 -36.796875 25.734375 -36.578125 L 25.734375 -49.015625 C 25.734375 -49.367188 25.851562 -49.664062 26.09375 -49.90625 C 26.34375 -50.15625 26.648438 -50.28125 27.015625 -50.28125 L 30.421875 -50.28125 C 31.222656 -50.28125 31.625 -49.859375 31.625 -49.015625 Z M 25.734375 -5.078125 L 25.734375 -31.625 C 24.617188 -31.84375 23.300781 -31.972656 21.78125 -32.015625 C 20.269531 -32.066406 18.984375 -32.09375 17.921875 -32.09375 C 14.660156 -32.09375 12.394531 -31.109375 11.125 -29.140625 C 9.863281 -27.179688 9.234375 -24.421875 9.234375 -20.859375 L 9.234375 -16.046875 C 9.234375 -12.390625 9.851562 -9.582031 11.09375 -7.625 C 12.34375 -5.664062 14.617188 -4.6875 17.921875 -4.6875 C 19.078125 -4.6875 20.390625 -4.726562 21.859375 -4.8125 C 23.328125 -4.90625 24.617188 -4.992188 25.734375 -5.078125 Z M 25.734375 -5.078125 "/></g></g></g><g fill="#000000" fill-opacity="1"><g transform="translate(174.186529, 52.298119)"><g><path d="M 33.15625 -24.53125 C 33.15625 -24.175781 33.019531 -23.863281 32.75 -23.59375 C 32.488281 -23.332031 32.179688 -23.203125 31.828125 -23.203125 L 11.296875 -23.203125 L 11.296875 -1.34375 C 11.296875 -0.976562 11.160156 -0.660156 10.890625 -0.390625 C 10.628906 -0.128906 10.320312 0 9.96875 0 L 6.546875 0 C 6.191406 0 5.878906 -0.128906 5.609375 -0.390625 C 5.347656 -0.660156 5.21875 -0.976562 5.21875 -1.34375 L 5.21875 -37.703125 C 5.21875 -42.160156 6.421875 -45.347656 8.828125 -47.265625 C 11.234375 -49.179688 14.773438 -50.140625 19.453125 -50.140625 C 20.796875 -50.140625 22.300781 -50.128906 23.96875 -50.109375 C 25.632812 -50.085938 27.238281 -50.039062 28.78125 -49.96875 C 30.320312 -49.90625 31.5625 -49.832031 32.5 -49.75 C 32.9375 -49.65625 33.15625 -49.34375 33.15625 -48.8125 L 33.15625 -45.46875 C 33.15625 -44.925781 32.910156 -44.65625 32.421875 -44.65625 L 19.515625 -44.65625 C 17.160156 -44.65625 15.390625 -44.429688 14.203125 -43.984375 C 13.023438 -43.546875 12.242188 -42.8125 11.859375 -41.78125 C 11.484375 -40.757812 11.296875 -39.398438 11.296875 -37.703125 L 11.296875 -28.421875 L 31.828125 -28.421875 C 32.179688 -28.421875 32.488281 -28.285156 32.75 -28.015625 C 33.019531 -27.742188 33.15625 -27.429688 33.15625 -27.078125 Z M 33.15625 -24.53125 "/></g></g></g><g fill="#000000" fill-opacity="1"><g transform="translate(207.47346, 52.298119)"><g><path d="M 11.296875 -44 C 11.296875 -43.632812 11.160156 -43.316406 10.890625 -43.046875 C 10.628906 -42.785156 10.320312 -42.65625 9.96875 -42.65625 L 6.546875 -42.65625 C 6.191406 -42.65625 5.878906 -42.785156 5.609375 -43.046875 C 5.347656 -43.316406 5.21875 -43.632812 5.21875 -44 L 5.21875 -49.34375 C 5.21875 -49.695312 5.347656 -50.003906 5.609375 -50.265625 C 5.878906 -50.535156 6.191406 -50.671875 6.546875 -50.671875 L 9.96875 -50.671875 C 10.320312 -50.671875 10.628906 -50.535156 10.890625 -50.265625 C 11.160156 -50.003906 11.296875 -49.695312 11.296875 -49.34375 Z M 11.171875 -1.34375 C 11.171875 -0.976562 11.035156 -0.660156 10.765625 -0.390625 C 10.492188 -0.128906 10.179688 0 9.828125 0 L 6.625 0 C 6.257812 0 5.941406 -0.128906 5.671875 -0.390625 C 5.410156 -0.660156 5.28125 -0.976562 5.28125 -1.34375 L 5.28125 -35.4375 C 5.28125 -35.789062 5.410156 -36.097656 5.671875 -36.359375 C 5.941406 -36.628906 6.257812 -36.765625 6.625 -36.765625 L 9.828125 -36.765625 C 10.179688 -36.765625 10.492188 -36.628906 10.765625 -36.359375 C 11.035156 -36.097656 11.171875 -35.789062 11.171875 -35.4375 Z M 11.171875 -1.34375 "/></g></g></g><g fill="#000000" fill-opacity="1"><g transform="translate(220.440151, 52.298119)"><g><path d="M 31.625 -2.203125 C 31.625 -1.753906 31.546875 -1.40625 31.390625 -1.15625 C 31.234375 -0.914062 30.84375 -0.753906 30.21875 -0.671875 C 28.164062 -0.265625 26.113281 0.0234375 24.0625 0.203125 C 22.019531 0.378906 19.972656 0.46875 17.921875 0.46875 C 12.929688 0.46875 9.253906 -1.035156 6.890625 -4.046875 C 4.523438 -7.054688 3.34375 -11.054688 3.34375 -16.046875 L 3.34375 -20.859375 C 3.34375 -26.117188 4.554688 -30.160156 6.984375 -32.984375 C 9.410156 -35.816406 13.054688 -37.234375 17.921875 -37.234375 C 18.941406 -37.234375 20.175781 -37.175781 21.625 -37.0625 C 23.070312 -36.957031 24.441406 -36.796875 25.734375 -36.578125 L 25.734375 -49.015625 C 25.734375 -49.367188 25.851562 -49.664062 26.09375 -49.90625 C 26.34375 -50.15625 26.648438 -50.28125 27.015625 -50.28125 L 30.421875 -50.28125 C 31.222656 -50.28125 31.625 -49.859375 31.625 -49.015625 Z M 25.734375 -5.078125 L 25.734375 -31.625 C 24.617188 -31.84375 23.300781 -31.972656 21.78125 -32.015625 C 20.269531 -32.066406 18.984375 -32.09375 17.921875 -32.09375 C 14.660156 -32.09375 12.394531 -31.109375 11.125 -29.140625 C 9.863281 -27.179688 9.234375 -24.421875 9.234375 -20.859375 L 9.234375 -16.046875 C 9.234375 -12.390625 9.851562 -9.582031 11.09375 -7.625 C 12.34375 -5.664062 14.617188 -4.6875 17.921875 -4.6875 C 19.078125 -4.6875 20.390625 -4.726562 21.859375 -4.8125 C 23.328125 -4.90625 24.617188 -4.992188 25.734375 -5.078125 Z M 25.734375 -5.078125 "/></g></g></g><g fill="#000000" fill-opacity="1"><g transform="translate(253.058643, 52.298119)"><g><path d="M 32.890625 -17.984375 C 32.890625 -17.003906 32.46875 -16.515625 31.625 -16.515625 L 9.234375 -16.515625 L 9.234375 -15.578125 C 9.234375 -11.609375 10.007812 -8.800781 11.5625 -7.15625 C 13.125 -5.507812 15.441406 -4.6875 18.515625 -4.6875 C 20.484375 -4.6875 22.578125 -4.75 24.796875 -4.875 C 27.023438 -5.007812 28.898438 -5.191406 30.421875 -5.421875 C 30.515625 -5.421875 30.582031 -5.421875 30.625 -5.421875 C 30.664062 -5.421875 30.707031 -5.421875 30.75 -5.421875 C 31.019531 -5.421875 31.265625 -5.351562 31.484375 -5.21875 C 31.710938 -5.082031 31.828125 -4.835938 31.828125 -4.484375 L 31.828125 -2.203125 C 31.828125 -1.753906 31.738281 -1.40625 31.5625 -1.15625 C 31.382812 -0.914062 31.023438 -0.753906 30.484375 -0.671875 C 28.566406 -0.316406 26.648438 -0.0390625 24.734375 0.15625 C 22.816406 0.363281 20.742188 0.46875 18.515625 0.46875 C 16.597656 0.46875 14.738281 0.210938 12.9375 -0.296875 C 11.132812 -0.804688 9.507812 -1.664062 8.0625 -2.875 C 6.613281 -4.082031 5.460938 -5.71875 4.609375 -7.78125 C 3.765625 -9.851562 3.34375 -12.453125 3.34375 -15.578125 L 3.34375 -21.59375 C 3.34375 -26.363281 4.625 -30.160156 7.1875 -32.984375 C 9.75 -35.816406 13.414062 -37.234375 18.1875 -37.234375 C 23.09375 -37.234375 26.769531 -35.816406 29.21875 -32.984375 C 31.664062 -30.160156 32.890625 -26.363281 32.890625 -21.59375 Z M 26.9375 -21 L 26.9375 -21.59375 C 26.9375 -25.382812 26.210938 -28.082031 24.765625 -29.6875 C 23.316406 -31.289062 21.125 -32.09375 18.1875 -32.09375 C 15.332031 -32.09375 13.125 -31.242188 11.5625 -29.546875 C 10.007812 -27.859375 9.234375 -25.207031 9.234375 -21.59375 L 9.234375 -21 Z M 26.9375 -21 "/></g></g></g><g fill="#000000" fill-opacity="1"><g transform="translate(285.877698, 52.298119)"><g><path d="M 11.09375 -1.34375 C 11.09375 -1.03125 10.984375 -0.726562 10.765625 -0.4375 C 10.546875 -0.144531 10.253906 0 9.890625 0 L 6.421875 0 C 6.109375 0 5.828125 -0.128906 5.578125 -0.390625 C 5.335938 -0.660156 5.21875 -0.976562 5.21875 -1.34375 L 5.21875 -49.015625 C 5.21875 -49.367188 5.328125 -49.664062 5.546875 -49.90625 C 5.773438 -50.15625 6.066406 -50.28125 6.421875 -50.28125 L 9.890625 -50.28125 C 10.691406 -50.28125 11.09375 -49.859375 11.09375 -49.015625 Z M 11.09375 -1.34375 "/></g></g></g><g fill="#000000" fill-opacity="1"><g transform="translate(298.643861, 52.298119)"><g><path d="M 11.296875 -44 C 11.296875 -43.632812 11.160156 -43.316406 10.890625 -43.046875 C 10.628906 -42.785156 10.320312 -42.65625 9.96875 -42.65625 L 6.546875 -42.65625 C 6.191406 -42.65625 5.878906 -42.785156 5.609375 -43.046875 C 5.347656 -43.316406 5.21875 -43.632812 5.21875 -44 L 5.21875 -49.34375 C 5.21875 -49.695312 5.347656 -50.003906 5.609375 -50.265625 C 5.878906 -50.535156 6.191406 -50.671875 6.546875 -50.671875 L 9.96875 -50.671875 C 10.320312 -50.671875 10.628906 -50.535156 10.890625 -50.265625 C 11.160156 -50.003906 11.296875 -49.695312 11.296875 -49.34375 Z M 11.171875 -1.34375 C 11.171875 -0.976562 11.035156 -0.660156 10.765625 -0.390625 C 10.492188 -0.128906 10.179688 0 9.828125 0 L 6.625 0 C 6.257812 0 5.941406 -0.128906 5.671875 -0.390625 C 5.410156 -0.660156 5.28125 -0.976562 5.28125 -1.34375 L 5.28125 -35.4375 C 5.28125 -35.789062 5.410156 -36.097656 5.671875 -36.359375 C 5.941406 -36.628906 6.257812 -36.765625 6.625 -36.765625 L 9.828125 -36.765625 C 10.179688 -36.765625 10.492188 -36.628906 10.765625 -36.359375 C 11.035156 -36.097656 11.171875 -35.789062 11.171875 -35.4375 Z M 11.171875 -1.34375 "/></g></g></g><g fill="#000000" fill-opacity="1"><g transform="translate(311.610553, 52.298119)"><g><path d="M 22.203125 -1.0625 C 22.203125 -0.445312 21.753906 -0.0703125 20.859375 0.0625 C 20.234375 0.15625 19.304688 0.242188 18.078125 0.328125 C 16.859375 0.421875 15.644531 0.46875 14.4375 0.46875 C 11.320312 0.46875 8.894531 -0.175781 7.15625 -1.46875 C 5.414062 -2.757812 4.546875 -5.210938 4.546875 -8.828125 L 4.546875 -43.328125 C 4.546875 -43.679688 4.675781 -43.96875 4.9375 -44.1875 C 5.207031 -44.414062 5.523438 -44.550781 5.890625 -44.59375 L 9.15625 -45.125 C 9.207031 -45.125 9.242188 -45.125 9.265625 -45.125 C 9.285156 -45.125 9.296875 -45.125 9.296875 -45.125 C 9.648438 -45.125 9.925781 -45 10.125 -44.75 C 10.332031 -44.507812 10.4375 -44.210938 10.4375 -43.859375 L 10.4375 -36.765625 L 20.859375 -36.765625 C 21.703125 -36.765625 22.125 -36.363281 22.125 -35.5625 L 22.125 -33.296875 C 22.125 -32.492188 21.703125 -32.09375 20.859375 -32.09375 L 10.4375 -32.09375 L 10.4375 -8.828125 C 10.4375 -6.910156 10.800781 -5.671875 11.53125 -5.109375 C 12.269531 -4.554688 13.550781 -4.28125 15.375 -4.28125 L 20.796875 -4.28125 C 21.734375 -4.28125 22.203125 -3.96875 22.203125 -3.34375 Z M 22.203125 -1.0625 "/></g></g></g><g fill="#000000" fill-opacity="1"><g transform="translate(331.929969, 52.298119)"><g><path d="M 32.6875 0 C 32.6875 3.476562 32.1875 6.175781 31.1875 8.09375 C 30.1875 10.007812 28.671875 11.34375 26.640625 12.09375 C 24.609375 12.851562 22.082031 13.234375 19.0625 13.234375 C 16.601562 13.234375 14.335938 13.085938 12.265625 12.796875 C 10.191406 12.515625 8.773438 12.285156 8.015625 12.109375 C 7.171875 11.878906 6.75 11.410156 6.75 10.703125 L 6.75 8.828125 C 6.75 8.066406 7.148438 7.6875 7.953125 7.6875 C 7.992188 7.6875 8.023438 7.6875 8.046875 7.6875 C 8.078125 7.6875 8.113281 7.6875 8.15625 7.6875 C 8.820312 7.78125 9.769531 7.890625 11 8.015625 C 12.226562 8.148438 13.550781 8.257812 14.96875 8.34375 C 16.394531 8.4375 17.757812 8.484375 19.0625 8.484375 C 21.0625 8.484375 22.640625 8.257812 23.796875 7.8125 C 24.960938 7.375 25.773438 6.539062 26.234375 5.3125 C 26.703125 4.09375 26.9375 2.320312 26.9375 0 L 26.9375 -0.328125 C 26.40625 -0.203125 25.691406 -0.0703125 24.796875 0.0625 C 23.910156 0.195312 22.988281 0.296875 22.03125 0.359375 C 21.070312 0.429688 20.234375 0.46875 19.515625 0.46875 C 17.597656 0.46875 15.75 0.269531 13.96875 -0.125 C 12.1875 -0.53125 10.582031 -1.242188 9.15625 -2.265625 C 7.726562 -3.296875 6.601562 -4.703125 5.78125 -6.484375 C 4.957031 -8.265625 4.546875 -10.5625 4.546875 -13.375 L 4.546875 -35.4375 C 4.546875 -35.789062 4.675781 -36.097656 4.9375 -36.359375 C 5.207031 -36.628906 5.523438 -36.765625 5.890625 -36.765625 L 9.09375 -36.765625 C 9.445312 -36.765625 9.757812 -36.628906 10.03125 -36.359375 C 10.300781 -36.097656 10.4375 -35.789062 10.4375 -35.4375 L 10.4375 -13.375 C 10.4375 -11.007812 10.800781 -9.179688 11.53125 -7.890625 C 12.269531 -6.597656 13.316406 -5.71875 14.671875 -5.25 C 16.035156 -4.78125 17.648438 -4.546875 19.515625 -4.546875 C 20.503906 -4.546875 21.722656 -4.632812 23.171875 -4.8125 C 24.617188 -4.988281 25.832031 -5.191406 26.8125 -5.421875 L 26.8125 -35.4375 C 26.8125 -35.789062 26.941406 -36.097656 27.203125 -36.359375 C 27.472656 -36.628906 27.785156 -36.765625 28.140625 -36.765625 L 31.359375 -36.765625 C 31.710938 -36.765625 32.019531 -36.628906 32.28125 -36.359375 C 32.550781 -36.097656 32.6875 -35.789062 32.6875 -35.4375 Z M 32.6875 0 "/></g></g></g></g></g><g clip-path="url(#df0e1cfbfd)"><g transform="matrix(1, 0, 0, 1, 166, 64)"><g clip-path="url(#ab2a319b03)"><g fill="#d20e09" fill-opacity="1"><g transform="translate(0.564382, 21.023088)"><g><path d="M 12.296875 -9.09375 C 12.296875 -8.957031 12.242188 -8.835938 12.140625 -8.734375 C 12.046875 -8.640625 11.929688 -8.59375 11.796875 -8.59375 L 4.1875 -8.59375 L 4.1875 -0.5 C 4.1875 -0.363281 4.132812 -0.242188 4.03125 -0.140625 C 3.9375 -0.046875 3.820312 0 3.6875 0 L 2.421875 0 C 2.296875 0 2.179688 -0.046875 2.078125 -0.140625 C 1.984375 -0.242188 1.9375 -0.363281 1.9375 -0.5 L 1.9375 -13.984375 C 1.9375 -15.628906 2.378906 -16.804688 3.265625 -17.515625 C 4.160156 -18.222656 5.476562 -18.578125 7.21875 -18.578125 C 7.707031 -18.578125 8.257812 -18.570312 8.875 -18.5625 C 9.5 -18.5625 10.09375 -18.546875 10.65625 -18.515625 C 11.226562 -18.492188 11.691406 -18.46875 12.046875 -18.4375 C 12.210938 -18.40625 12.296875 -18.289062 12.296875 -18.09375 L 12.296875 -16.84375 C 12.296875 -16.644531 12.203125 -16.546875 12.015625 -16.546875 L 7.234375 -16.546875 C 6.359375 -16.546875 5.703125 -16.460938 5.265625 -16.296875 C 4.828125 -16.140625 4.535156 -15.867188 4.390625 -15.484375 C 4.253906 -15.109375 4.1875 -14.609375 4.1875 -13.984375 L 4.1875 -10.53125 L 11.796875 -10.53125 C 11.929688 -10.53125 12.046875 -10.476562 12.140625 -10.375 C 12.242188 -10.28125 12.296875 -10.164062 12.296875 -10.03125 Z M 12.296875 -9.09375 "/></g></g></g><g fill="#d20e09" fill-opacity="1"><g transform="translate(15.578102, 21.023088)"><g><path d="M 14.46875 -0.890625 C 14.46875 -0.578125 14.414062 -0.375 14.3125 -0.28125 C 14.207031 -0.195312 14.03125 -0.132812 13.78125 -0.09375 C 13.351562 -0.03125 12.800781 0.0195312 12.125 0.0625 C 11.457031 0.101562 10.789062 0.132812 10.125 0.15625 C 9.46875 0.1875 8.925781 0.203125 8.5 0.203125 C 7.007812 0.203125 5.765625 -0.0078125 4.765625 -0.4375 C 3.765625 -0.875 3.007812 -1.613281 2.5 -2.65625 C 1.988281 -3.707031 1.734375 -5.144531 1.734375 -6.96875 L 1.734375 -17.921875 C 1.734375 -18.046875 1.773438 -18.15625 1.859375 -18.25 C 1.941406 -18.351562 2.050781 -18.40625 2.1875 -18.40625 L 3.5625 -18.40625 C 3.695312 -18.40625 3.800781 -18.351562 3.875 -18.25 C 3.945312 -18.15625 3.984375 -18.046875 3.984375 -17.921875 L 3.984375 -6.96875 C 3.984375 -5.53125 4.148438 -4.4375 4.484375 -3.6875 C 4.816406 -2.945312 5.320312 -2.441406 6 -2.171875 C 6.675781 -1.910156 7.523438 -1.78125 8.546875 -1.78125 C 8.910156 -1.78125 9.335938 -1.785156 9.828125 -1.796875 C 10.328125 -1.816406 10.800781 -1.835938 11.25 -1.859375 C 11.695312 -1.890625 12.019531 -1.914062 12.21875 -1.9375 L 12.21875 -17.921875 C 12.21875 -18.046875 12.257812 -18.15625 12.34375 -18.25 C 12.425781 -18.351562 12.53125 -18.40625 12.65625 -18.40625 L 14.03125 -18.40625 C 14.15625 -18.40625 14.257812 -18.351562 14.34375 -18.25 C 14.425781 -18.15625 14.46875 -18.046875 14.46875 -17.921875 Z M 14.46875 -0.890625 "/></g></g></g><g fill="#d20e09" fill-opacity="1"><g transform="translate(33.341881, 21.023088)"><g><path d="M 14.671875 -0.5 C 14.671875 -0.382812 14.628906 -0.269531 14.546875 -0.15625 C 14.460938 -0.0507812 14.351562 0 14.21875 0 L 12.84375 0 C 12.71875 0 12.613281 -0.046875 12.53125 -0.140625 C 12.457031 -0.242188 12.421875 -0.363281 12.421875 -0.5 L 12.421875 -11.453125 C 12.421875 -12.890625 12.253906 -13.976562 11.921875 -14.71875 C 11.585938 -15.457031 11.082031 -15.957031 10.40625 -16.21875 C 9.726562 -16.488281 8.878906 -16.625 7.859375 -16.625 C 7.503906 -16.625 7.078125 -16.613281 6.578125 -16.59375 C 6.085938 -16.582031 5.617188 -16.5625 5.171875 -16.53125 C 4.734375 -16.507812 4.40625 -16.492188 4.1875 -16.484375 L 4.1875 -0.5 C 4.1875 -0.382812 4.144531 -0.269531 4.0625 -0.15625 C 3.976562 -0.0507812 3.867188 0 3.734375 0 L 2.375 0 C 2.25 0 2.144531 -0.046875 2.0625 -0.140625 C 1.976562 -0.242188 1.9375 -0.363281 1.9375 -0.5 L 1.9375 -17.453125 C 1.9375 -17.765625 1.988281 -17.976562 2.09375 -18.09375 C 2.195312 -18.207031 2.375 -18.28125 2.625 -18.3125 C 3.070312 -18.375 3.625 -18.425781 4.28125 -18.46875 C 4.945312 -18.507812 5.613281 -18.539062 6.28125 -18.5625 C 6.945312 -18.59375 7.488281 -18.609375 7.90625 -18.609375 C 9.394531 -18.609375 10.640625 -18.394531 11.640625 -17.96875 C 12.648438 -17.539062 13.40625 -16.804688 13.90625 -15.765625 C 14.414062 -14.722656 14.671875 -13.285156 14.671875 -11.453125 Z M 14.671875 -0.5 "/></g></g></g><g fill="#d20e09" fill-opacity="1"><g transform="translate(51.105659, 21.023088)"><g><path d="M 14.46875 -7.53125 C 14.46875 -5.757812 14.160156 -4.304688 13.546875 -3.171875 C 12.941406 -2.035156 12.078125 -1.191406 10.953125 -0.640625 C 9.828125 -0.0976562 8.5 0.171875 6.96875 0.171875 C 6.019531 0.171875 5.117188 0.144531 4.265625 0.09375 C 3.421875 0.0507812 2.816406 -0.00390625 2.453125 -0.078125 C 2.109375 -0.128906 1.9375 -0.332031 1.9375 -0.6875 L 1.9375 -17.71875 C 1.9375 -18.082031 2.109375 -18.289062 2.453125 -18.34375 C 2.816406 -18.40625 3.421875 -18.457031 4.265625 -18.5 C 5.117188 -18.550781 6.019531 -18.578125 6.96875 -18.578125 C 8.5 -18.578125 9.828125 -18.304688 10.953125 -17.765625 C 12.078125 -17.234375 12.941406 -16.398438 13.546875 -15.265625 C 14.160156 -14.128906 14.46875 -12.664062 14.46875 -10.875 Z M 12.21875 -7.53125 L 12.21875 -10.875 C 12.21875 -12.382812 11.984375 -13.554688 11.515625 -14.390625 C 11.054688 -15.222656 10.429688 -15.804688 9.640625 -16.140625 C 8.847656 -16.484375 7.957031 -16.65625 6.96875 -16.65625 C 6.382812 -16.65625 5.878906 -16.648438 5.453125 -16.640625 C 5.035156 -16.628906 4.625 -16.609375 4.21875 -16.578125 L 4.21875 -1.8125 C 4.613281 -1.789062 5.023438 -1.773438 5.453125 -1.765625 C 5.878906 -1.765625 6.382812 -1.765625 6.96875 -1.765625 C 7.957031 -1.765625 8.847656 -1.9375 9.640625 -2.28125 C 10.429688 -2.625 11.054688 -3.210938 11.515625 -4.046875 C 11.984375 -4.878906 12.21875 -6.039062 12.21875 -7.53125 Z M 12.21875 -7.53125 "/></g></g></g><g fill="#d20e09" fill-opacity="1"><g transform="translate(68.349133, 21.023088)"><g><path d="M 4.4375 -0.5 C 4.4375 -0.382812 4.394531 -0.269531 4.3125 -0.15625 C 4.226562 -0.0507812 4.117188 0 3.984375 0 L 2.625 0 C 2.507812 0 2.40625 -0.046875 2.3125 -0.140625 C 2.226562 -0.242188 2.1875 -0.363281 2.1875 -0.5 L 2.1875 -17.9375 C 2.1875 -18.070312 2.222656 -18.179688 2.296875 -18.265625 C 2.378906 -18.359375 2.488281 -18.40625 2.625 -18.40625 L 3.984375 -18.40625 C 4.285156 -18.40625 4.4375 -18.25 4.4375 -17.9375 Z M 4.4375 -0.5 "/></g></g></g><g fill="#d20e09" fill-opacity="1"><g transform="translate(76.326712, 21.023088)"><g><path d="M 14.671875 -0.5 C 14.671875 -0.382812 14.628906 -0.269531 14.546875 -0.15625 C 14.460938 -0.0507812 14.351562 0 14.21875 0 L 12.84375 0 C 12.71875 0 12.613281 -0.046875 12.53125 -0.140625 C 12.457031 -0.242188 12.421875 -0.363281 12.421875 -0.5 L 12.421875 -11.453125 C 12.421875 -12.890625 12.253906 -13.976562 11.921875 -14.71875 C 11.585938 -15.457031 11.082031 -15.957031 10.40625 -16.21875 C 9.726562 -16.488281 8.878906 -16.625 7.859375 -16.625 C 7.503906 -16.625 7.078125 -16.613281 6.578125 -16.59375 C 6.085938 -16.582031 5.617188 -16.5625 5.171875 -16.53125 C 4.734375 -16.507812 4.40625 -16.492188 4.1875 -16.484375 L 4.1875 -0.5 C 4.1875 -0.382812 4.144531 -0.269531 4.0625 -0.15625 C 3.976562 -0.0507812 3.867188 0 3.734375 0 L 2.375 0 C 2.25 0 2.144531 -0.046875 2.0625 -0.140625 C 1.976562 -0.242188 1.9375 -0.363281 1.9375 -0.5 L 1.9375 -17.453125 C 1.9375 -17.765625 1.988281 -17.976562 2.09375 -18.09375 C 2.195312 -18.207031 2.375 -18.28125 2.625 -18.3125 C 3.070312 -18.375 3.625 -18.425781 4.28125 -18.46875 C 4.945312 -18.507812 5.613281 -18.539062 6.28125 -18.5625 C 6.945312 -18.59375 7.488281 -18.609375 7.90625 -18.609375 C 9.394531 -18.609375 10.640625 -18.394531 11.640625 -17.96875 C 12.648438 -17.539062 13.40625 -16.804688 13.90625 -15.765625 C 14.414062 -14.722656 14.671875 -13.285156 14.671875 -11.453125 Z M 14.671875 -0.5 "/></g></g></g><g fill="#d20e09" fill-opacity="1"><g transform="translate(94.09049, 21.023088)"><g><path d="M 13.234375 -0.75 C 13.234375 -0.425781 13.082031 -0.242188 12.78125 -0.203125 C 12.175781 -0.0976562 11.492188 -0.0078125 10.734375 0.0625 C 9.984375 0.132812 9.023438 0.171875 7.859375 0.171875 C 7.078125 0.171875 6.304688 0.0351562 5.546875 -0.234375 C 4.785156 -0.503906 4.09375 -0.941406 3.46875 -1.546875 C 2.851562 -2.148438 2.359375 -2.941406 1.984375 -3.921875 C 1.617188 -4.910156 1.4375 -6.113281 1.4375 -7.53125 L 1.4375 -10.859375 C 1.4375 -12.359375 1.628906 -13.609375 2.015625 -14.609375 C 2.410156 -15.609375 2.925781 -16.394531 3.5625 -16.96875 C 4.207031 -17.550781 4.921875 -17.960938 5.703125 -18.203125 C 6.492188 -18.453125 7.285156 -18.578125 8.078125 -18.578125 C 9.234375 -18.578125 10.191406 -18.539062 10.953125 -18.46875 C 11.710938 -18.394531 12.320312 -18.316406 12.78125 -18.234375 C 12.894531 -18.222656 12.992188 -18.191406 13.078125 -18.140625 C 13.160156 -18.085938 13.203125 -18 13.203125 -17.875 L 13.203125 -16.625 C 13.203125 -16.457031 13.097656 -16.375 12.890625 -16.375 C 12.867188 -16.375 12.847656 -16.375 12.828125 -16.375 C 12.816406 -16.375 12.800781 -16.375 12.78125 -16.375 C 12.0625 -16.445312 11.363281 -16.492188 10.6875 -16.515625 C 10.007812 -16.535156 9.140625 -16.546875 8.078125 -16.546875 C 7.316406 -16.546875 6.601562 -16.378906 5.9375 -16.046875 C 5.269531 -15.722656 4.726562 -15.144531 4.3125 -14.3125 C 3.894531 -13.488281 3.6875 -12.335938 3.6875 -10.859375 L 3.6875 -7.53125 C 3.6875 -6.175781 3.875 -5.078125 4.25 -4.234375 C 4.625 -3.390625 5.128906 -2.773438 5.765625 -2.390625 C 6.398438 -2.015625 7.097656 -1.828125 7.859375 -1.828125 C 8.617188 -1.828125 9.253906 -1.847656 9.765625 -1.890625 C 10.273438 -1.929688 10.679688 -1.960938 10.984375 -1.984375 L 10.984375 -9.0625 C 10.984375 -9.195312 11.019531 -9.3125 11.09375 -9.40625 C 11.175781 -9.507812 11.285156 -9.5625 11.421875 -9.5625 L 12.765625 -9.5625 C 12.890625 -9.5625 13 -9.507812 13.09375 -9.40625 C 13.1875 -9.3125 13.234375 -9.195312 13.234375 -9.0625 Z M 13.234375 -0.75 "/></g></g></g><g fill="#d20e09" fill-opacity="1"><g transform="translate(110.615506, 21.023088)"><g/></g></g><g fill="#d20e09" fill-opacity="1"><g transform="translate(118.097573, 21.023088)"><g><path d="M 12.640625 -0.640625 C 12.640625 -0.492188 12.585938 -0.382812 12.484375 -0.3125 C 12.390625 -0.238281 12.273438 -0.1875 12.140625 -0.15625 C 11.628906 -0.0507812 11.078125 0.0234375 10.484375 0.078125 C 9.898438 0.140625 9.082031 0.171875 8.03125 0.171875 C 7.269531 0.171875 6.503906 0.0507812 5.734375 -0.1875 C 4.960938 -0.425781 4.253906 -0.828125 3.609375 -1.390625 C 2.972656 -1.960938 2.457031 -2.742188 2.0625 -3.734375 C 1.675781 -4.734375 1.484375 -5.984375 1.484375 -7.484375 L 1.484375 -10.921875 C 1.484375 -12.441406 1.675781 -13.695312 2.0625 -14.6875 C 2.457031 -15.6875 2.972656 -16.46875 3.609375 -17.03125 C 4.253906 -17.601562 4.960938 -18.003906 5.734375 -18.234375 C 6.503906 -18.460938 7.269531 -18.578125 8.03125 -18.578125 C 8.800781 -18.578125 9.550781 -18.53125 10.28125 -18.4375 C 11.007812 -18.351562 11.644531 -18.269531 12.1875 -18.1875 C 12.457031 -18.15625 12.59375 -18.050781 12.59375 -17.875 L 12.59375 -16.609375 C 12.59375 -16.421875 12.492188 -16.328125 12.296875 -16.328125 C 12.273438 -16.328125 12.257812 -16.328125 12.25 -16.328125 C 12.238281 -16.328125 12.226562 -16.328125 12.21875 -16.328125 C 11.914062 -16.359375 11.53125 -16.390625 11.0625 -16.421875 C 10.59375 -16.460938 10.09375 -16.492188 9.5625 -16.515625 C 9.03125 -16.535156 8.523438 -16.546875 8.046875 -16.546875 C 7.242188 -16.546875 6.515625 -16.367188 5.859375 -16.015625 C 5.203125 -15.660156 4.679688 -15.070312 4.296875 -14.25 C 3.921875 -13.4375 3.734375 -12.328125 3.734375 -10.921875 L 3.734375 -7.484375 C 3.734375 -6.097656 3.921875 -4.992188 4.296875 -4.171875 C 4.679688 -3.359375 5.203125 -2.769531 5.859375 -2.40625 C 6.515625 -2.039062 7.242188 -1.859375 8.046875 -1.859375 C 8.765625 -1.859375 9.515625 -1.878906 10.296875 -1.921875 C 11.078125 -1.972656 11.691406 -2.019531 12.140625 -2.0625 C 12.160156 -2.0625 12.175781 -2.0625 12.1875 -2.0625 C 12.207031 -2.0625 12.222656 -2.0625 12.234375 -2.0625 C 12.503906 -2.0625 12.640625 -1.925781 12.640625 -1.65625 Z M 12.640625 -0.640625 "/></g></g></g><g fill="#d20e09" fill-opacity="1"><g transform="translate(132.962631, 21.023088)"><g><path d="M 14.890625 -7.609375 C 14.890625 -5.773438 14.597656 -4.285156 14.015625 -3.140625 C 13.441406 -2.003906 12.65625 -1.164062 11.65625 -0.625 C 10.65625 -0.09375 9.503906 0.171875 8.203125 0.171875 C 6.910156 0.171875 5.753906 -0.09375 4.734375 -0.625 C 3.722656 -1.164062 2.925781 -2.003906 2.34375 -3.140625 C 1.769531 -4.285156 1.484375 -5.773438 1.484375 -7.609375 L 1.484375 -10.796875 C 1.484375 -12.640625 1.769531 -14.128906 2.34375 -15.265625 C 2.925781 -16.398438 3.722656 -17.234375 4.734375 -17.765625 C 5.753906 -18.304688 6.910156 -18.578125 8.203125 -18.578125 C 9.503906 -18.578125 10.65625 -18.304688 11.65625 -17.765625 C 12.65625 -17.234375 13.441406 -16.398438 14.015625 -15.265625 C 14.597656 -14.128906 14.890625 -12.640625 14.890625 -10.796875 Z M 12.609375 -7.609375 L 12.609375 -10.796875 C 12.609375 -12.878906 12.21875 -14.359375 11.4375 -15.234375 C 10.65625 -16.109375 9.578125 -16.546875 8.203125 -16.546875 C 6.847656 -16.546875 5.769531 -16.109375 4.96875 -15.234375 C 4.164062 -14.359375 3.765625 -12.878906 3.765625 -10.796875 L 3.765625 -7.609375 C 3.765625 -5.523438 4.164062 -4.046875 4.96875 -3.171875 C 5.769531 -2.296875 6.847656 -1.859375 8.203125 -1.859375 C 9.554688 -1.859375 10.628906 -2.296875 11.421875 -3.171875 C 12.210938 -4.046875 12.609375 -5.523438 12.609375 -7.609375 Z M 12.609375 -7.609375 "/></g></g></g><g fill="#d20e09" fill-opacity="1"><g transform="translate(150.701616, 21.023088)"><g><path d="M 14.515625 -0.328125 C 14.515625 -0.109375 14.410156 0 14.203125 0 L 12.609375 0 C 12.460938 0 12.34375 -0.0078125 12.25 -0.03125 C 12.164062 -0.0625 12.070312 -0.160156 11.96875 -0.328125 L 7.53125 -7.703125 C 7.5 -7.703125 7.460938 -7.703125 7.421875 -7.703125 C 7.378906 -7.703125 7.34375 -7.703125 7.3125 -7.703125 C 7.25 -7.703125 7.179688 -7.703125 7.109375 -7.703125 C 7.046875 -7.703125 6.972656 -7.703125 6.890625 -7.703125 C 6.472656 -7.703125 6.078125 -7.707031 5.703125 -7.71875 C 5.335938 -7.738281 4.820312 -7.757812 4.15625 -7.78125 L 4.15625 -0.5 C 4.15625 -0.382812 4.113281 -0.269531 4.03125 -0.15625 C 3.957031 -0.0507812 3.851562 0 3.71875 0 L 2.375 0 C 2.257812 0 2.15625 -0.046875 2.0625 -0.140625 C 1.976562 -0.242188 1.9375 -0.363281 1.9375 -0.5 L 1.9375 -17.84375 C 1.9375 -18.15625 2.132812 -18.335938 2.53125 -18.390625 C 3.0625 -18.453125 3.742188 -18.5 4.578125 -18.53125 C 5.410156 -18.5625 6.179688 -18.578125 6.890625 -18.578125 C 8.191406 -18.578125 9.367188 -18.410156 10.421875 -18.078125 C 11.472656 -17.753906 12.300781 -17.203125 12.90625 -16.421875 C 13.519531 -15.648438 13.828125 -14.597656 13.828125 -13.265625 L 13.828125 -13.078125 C 13.828125 -11.691406 13.457031 -10.585938 12.71875 -9.765625 C 11.988281 -8.941406 11.0625 -8.378906 9.9375 -8.078125 L 14.453125 -0.546875 C 14.492188 -0.484375 14.515625 -0.410156 14.515625 -0.328125 Z M 11.59375 -13.078125 L 11.59375 -13.265625 C 11.59375 -14.492188 11.195312 -15.347656 10.40625 -15.828125 C 9.613281 -16.304688 8.441406 -16.546875 6.890625 -16.546875 C 6.640625 -16.546875 6.335938 -16.546875 5.984375 -16.546875 C 5.628906 -16.546875 5.285156 -16.539062 4.953125 -16.53125 C 4.617188 -16.53125 4.351562 -16.515625 4.15625 -16.484375 L 4.15625 -9.6875 C 4.707031 -9.675781 5.226562 -9.664062 5.71875 -9.65625 C 6.21875 -9.644531 6.609375 -9.640625 6.890625 -9.640625 C 8.410156 -9.640625 9.570312 -9.878906 10.375 -10.359375 C 11.1875 -10.835938 11.59375 -11.742188 11.59375 -13.078125 Z M 11.59375 -13.078125 "/></g></g></g><g fill="#d20e09" fill-opacity="1"><g transform="translate(167.548687, 21.023088)"><g><path d="M 13.578125 -12.890625 C 13.578125 -11.515625 13.28125 -10.414062 12.6875 -9.59375 C 12.09375 -8.78125 11.269531 -8.195312 10.21875 -7.84375 C 9.175781 -7.5 7.984375 -7.328125 6.640625 -7.328125 C 6.242188 -7.328125 5.8125 -7.34375 5.34375 -7.375 C 4.882812 -7.414062 4.488281 -7.441406 4.15625 -7.453125 L 4.15625 -0.5 C 4.15625 -0.382812 4.113281 -0.269531 4.03125 -0.15625 C 3.957031 -0.0507812 3.851562 0 3.71875 0 L 2.375 0 C 2.257812 0 2.15625 -0.046875 2.0625 -0.140625 C 1.976562 -0.242188 1.9375 -0.363281 1.9375 -0.5 L 1.9375 -17.765625 C 1.9375 -18.128906 2.132812 -18.335938 2.53125 -18.390625 C 3.0625 -18.453125 3.703125 -18.5 4.453125 -18.53125 C 5.203125 -18.5625 5.929688 -18.578125 6.640625 -18.578125 C 7.984375 -18.578125 9.175781 -18.40625 10.21875 -18.0625 C 11.269531 -17.726562 12.09375 -17.171875 12.6875 -16.390625 C 13.28125 -15.609375 13.578125 -14.546875 13.578125 -13.203125 Z M 11.328125 -12.890625 L 11.328125 -13.203125 C 11.328125 -14.460938 10.945312 -15.351562 10.1875 -15.875 C 9.425781 -16.40625 8.242188 -16.671875 6.640625 -16.671875 C 6.265625 -16.671875 5.832031 -16.660156 5.34375 -16.640625 C 4.851562 -16.628906 4.457031 -16.609375 4.15625 -16.578125 L 4.15625 -9.3125 C 4.4375 -9.300781 4.84375 -9.28125 5.375 -9.25 C 5.90625 -9.226562 6.328125 -9.21875 6.640625 -9.21875 C 8.335938 -9.21875 9.539062 -9.503906 10.25 -10.078125 C 10.96875 -10.660156 11.328125 -11.597656 11.328125 -12.890625 Z M 11.328125 -12.890625 "/></g></g></g></g></g></g></svg>